<svg xmlns="http://www.w3.org/2000/svg" width="115.7" height="22" viewBox="674.7 409 115.7 22">
  <path font-family="none" font-weight="none" font-size="none" d="M596.919 308.185h298.172v223.63H596.919z" fill="none"/>
  <g fill="none" fill-rule="none" stroke-width="none" stroke-linecap="none" stroke-linejoin="none" stroke-miterlimit="10" font-family="none" font-weight="none" font-size="none">
    <path d="M690.16 418.208h-.01m-3.99 0h-.01m-3.99 0h-.01m-4.99 3v-6c0-1.886 0-2.828.586-3.414s1.528-.586 3.414-.586h10c1.886 0 2.828 0 3.414.586s.586 1.528.586 3.414v6c0 1.886 0 2.828-.586 3.414s-1.528.586-3.414.586h-.5a.5.5 0 0 0-.5.5v2.65a.433.433 0 0 1-.688.35l-4.408-3.206a1.54 1.54 0 0 0-.904-.294h-3c-1.886 0-2.828 0-3.414-.586s-.586-1.528-.586-3.414" stroke="#fff" stroke-width="2" stroke-linecap="round" stroke-linejoin="round"/>
    <g stroke-width="1" stroke-linecap="square" stroke-linejoin="miter">
      <path d="M596.915 308.187h298.17v223.626h-298.17z"/>
      <path d="M650.303 404.441h191.394v31.118H650.303z"/>
      <path d="M712.294 418.224h-4.256v-2.849q0-1.242-.14-1.548-.136-.31-.598-.31-.529 0-.67.373-.14.375-.14 1.616v7.6q0 1.194.14 1.558.141.363.636.364.475 0 .622-.364.15-.364.15-1.709v-2.052h4.256v.635q0 2.538-.359 3.601-.36 1.063-1.587 1.864-1.228.795-3.028.796-1.874 0-3.087-.675-1.213-.68-1.606-1.878t-.393-3.606v-4.78q0-1.77.121-2.655.122-.883.723-1.698.602-.82 1.665-1.291 1.068-.47 2.455-.47 1.878 0 3.101.727 1.223.728 1.607 1.815.388 1.087.388 3.378zm5.49-7.134v3.678q.523-.485 1.135-.727a3.5 3.5 0 0 1 1.31-.243q1.068 0 1.82.548.757.544.922 1.257.17.714.17 2.601v9.25h-4.086v-9.444q0-1.169-.117-1.504-.115-.335-.519-.335a.496.496 0 0 0-.505.345q-.13.345-.13 1.363v9.575h-4.087V411.09zm10.41 8.148h-3.834v-.903q0-1.557.359-2.402.36-.845 1.441-1.49 1.082-.645 2.81-.645 2.072 0 3.125.733 1.053.732 1.262 1.8.214 1.063.214 4.392v6.731h-3.975v-1.194q-.374.719-.966 1.078-.587.36-1.407.359-1.073 0-1.97-.602-.894-.602-.893-2.635v-1.102q0-1.504.475-2.048.475-.547 2.359-1.276 2.01-.786 2.15-1.058.145-.276.145-1.116 0-1.048-.16-1.369a.535.535 0 0 0-.52-.32q-.412 0-.514.272-.101.267-.101 1.388zm1.295 1.84q-.98.718-1.14 1.203-.156.48-.155 1.393 0 1.042.135 1.344.136.3.544.3.384 0 .5-.232.116-.238.116-1.252zm9.792-8.828v2.116h1.102v2.12h-1.102v7.178q0 1.325.136 1.475.141.15 1.14.15v2.165h-1.65q-1.392 0-1.99-.116a2.14 2.14 0 0 1-1.053-.534 1.8 1.8 0 0 1-.562-.961q-.112-.543-.112-2.543v-6.814h-.883v-2.12h.883v-2.116zm6.09-1.16v3.868a3.35 3.35 0 0 1 1.125-.869 3.1 3.1 0 0 1 1.35-.291q.84 0 1.456.262t.936.738q.325.475.388.931.069.451.068 1.942v6.042q0 1.475-.199 2.198-.194.723-.922 1.257-.727.53-1.727.529-.72 0-1.34-.31a3.6 3.6 0 0 1-1.135-.942l-.267 1.01h-3.82V411.09zm1.242 6.76q0-1.038-.131-1.359-.13-.32-.52-.32-.372 0-.485.281-.105.277-.106 1.398v5.785q0 1.082.126 1.383.125.3.5.3.383 0 .5-.31.116-.315.116-1.504zm14.667.903v3.285q0 1.806-.184 2.65a3.7 3.7 0 0 1-.777 1.577q-.597.734-1.533 1.082-.931.35-2.145.35-1.354 0-2.296-.296-.94-.3-1.46-.903a3.6 3.6 0 0 1-.743-1.456q-.223-.854-.223-2.562v-3.436q0-1.869.403-2.922.407-1.053 1.456-1.688 1.053-.636 2.688-.636 1.379 0 2.364.412.985.408 1.519 1.063.538.655.732 1.354.2.7.2 2.126m-4.086-1.014q0-1.029-.112-1.296-.11-.272-.475-.272-.36 0-.48.272-.122.267-.122 1.296v6.056q0 .951.121 1.238.122.285.471.286.365 0 .48-.262.117-.263.117-1.13zm9.08 1.5h-3.834v-.904q0-1.557.359-2.402.36-.845 1.441-1.49 1.082-.645 2.81-.645 2.072 0 3.125.733 1.053.732 1.262 1.8.214 1.063.214 4.392v6.731h-3.975v-1.194q-.373.719-.966 1.078-.587.36-1.407.359-1.073 0-1.97-.602-.894-.602-.893-2.635v-1.102q0-1.504.475-2.048.476-.547 2.359-1.276 2.01-.786 2.15-1.058.145-.276.145-1.116 0-1.048-.16-1.369a.535.535 0 0 0-.52-.32q-.412 0-.514.272-.1.267-.101 1.388zm1.295 1.838q-.98.719-1.14 1.204-.155.48-.155 1.393 0 1.042.135 1.344.136.3.544.3.383 0 .5-.232.116-.238.116-1.252zm9.574-7.036-.165 1.756q.887-1.887 2.577-2v4.723q-1.122 0-1.646.306-.524.3-.645.84-.12.537-.121 2.494v5.294h-4.087V414.04zm12.612-2.951v16.364h-4.081v-.97a4.3 4.3 0 0 1-1.238.912q-.645.3-1.354.3-.946 0-1.645-.499-.699-.5-.898-1.155-.194-.66-.194-2.145v-6.28q0-1.543.194-2.189.199-.65.908-1.14.708-.49 1.688-.49.758 0 1.388.272.631.27 1.15.82v-3.8zm-4.081 6.328q0-.738-.127-.99-.125-.257-.5-.257-.363 0-.49.228-.126.228-.126 1.02v6.57q0 .815.122 1.073.12.257.46.257.399 0 .53-.286.13-.286.13-1.408z" fill="#fff" fill-rule="nonzero"/>
    </g>
  </g>
</svg>
